<svg width="120" height="120" viewBox="0 0 120 120" fill="none" xmlns="http://www.w3.org/2000/svg">
    <path d="M110 40.8137V41.1787C110 45.4787 110 47.6338 108.965 49.3938C107.93 51.1538 106.045 52.1987 102.285 54.2937L98.32 56.4938C101.05 47.2538 101.965 37.3237 102.3 28.8337L102.35 27.7288L102.36 27.4688C105.615 28.5987 107.445 29.4437 108.585 31.0237C110 32.9887 110 35.5987 110 40.8137ZM10 40.8137V41.1787C10 45.4787 10 47.6338 11.035 49.3938C12.07 51.1538 13.955 52.1987 17.715 54.2937L21.685 56.4938C18.95 47.2538 18.035 37.3237 17.7 28.8337L17.65 27.7288L17.645 27.4688C14.385 28.5987 12.555 29.4437 11.415 31.0237C10 32.9887 10 35.6037 10 40.8137Z"
          fill="#F5F0E5"/>
    <path fill-rule="evenodd" clip-rule="evenodd"
          d="M60.0001 10.0012C68.9201 10.0012 76.2651 10.7862 81.8851 11.7362C87.5801 12.6962 90.4251 13.1762 92.8051 16.1062C95.1851 19.0362 95.0551 22.2012 94.8051 28.5312C93.9451 50.2762 89.2551 77.4312 63.7501 79.8312V97.5012H70.9001C72.0556 97.5019 73.1751 97.9027 74.0684 98.6356C74.9617 99.3685 75.5736 100.388 75.8001 101.521L76.7501 106.251H90.0001C90.9947 106.251 91.9485 106.646 92.6518 107.35C93.355 108.053 93.7501 109.007 93.7501 110.001C93.7501 110.996 93.355 111.95 92.6518 112.653C91.9485 113.356 90.9947 113.751 90.0001 113.751H30.0001C29.0055 113.751 28.0517 113.356 27.3485 112.653C26.6452 111.95 26.2501 110.996 26.2501 110.001C26.2501 109.007 26.6452 108.053 27.3485 107.35C28.0517 106.646 29.0055 106.251 30.0001 106.251H43.2501L44.2001 101.521C44.4266 100.388 45.0385 99.3685 45.9318 98.6356C46.8251 97.9027 47.9446 97.5019 49.1001 97.5012H56.2501V79.8312C30.7501 77.4312 26.0601 50.2712 25.2001 28.5312C24.9451 22.2012 24.8201 19.0312 27.2001 16.1062C29.5751 13.1762 32.4201 12.6962 38.1151 11.7362C45.3492 10.5506 52.6696 9.97021 60.0001 10.0012ZM64.7601 30.9962L64.2701 30.1162C62.3701 26.7012 61.4201 25.0012 60.0001 25.0012C58.5801 25.0012 57.6301 26.7012 55.7301 30.1162L55.2401 30.9962C54.7001 31.9662 54.4301 32.4462 54.0101 32.7662C53.5851 33.0862 53.0601 33.2062 52.0101 33.4412L51.0601 33.6612C47.3701 34.4962 45.5251 34.9112 45.0851 36.3212C44.6451 37.7362 45.9051 39.2062 48.4201 42.1462L49.0701 42.9062C49.7851 43.7412 50.1451 44.1562 50.3051 44.6762C50.4651 45.1962 50.4101 45.7512 50.3051 46.8662L50.2051 47.8812C49.8251 51.8062 49.6351 53.7712 50.7801 54.6412C51.9301 55.5112 53.6601 54.7162 57.1151 53.1262L58.0051 52.7162C58.9901 52.2662 59.4801 52.0412 60.0001 52.0412C60.5201 52.0412 61.0101 52.2662 61.9951 52.7162L62.8851 53.1262C66.3401 54.7212 68.0701 55.5112 69.2201 54.6412C70.3701 53.7712 70.1751 51.8062 69.7951 47.8812L69.6951 46.8662C69.5901 45.7512 69.5351 45.1962 69.6951 44.6762C69.8551 44.1612 70.2151 43.7412 70.9301 42.9062L71.5801 42.1462C74.0951 39.2062 75.3551 37.7362 74.9151 36.3212C74.4751 34.9112 72.6301 34.4962 68.9401 33.6612L67.9901 33.4412C66.9401 33.2062 66.4151 33.0912 65.9901 32.7662C65.5701 32.4462 65.3001 31.9662 64.7601 30.9962Z"
          fill="#F5F0E5"/>
</svg>
